<?xml version="1.0" encoding="UTF-8"?>
<!DOCTYPE svg PUBLIC "-//W3C//DTD SVG 1.1//EN" "http://www.w3.org/Graphics/SVG/1.1/DTD/svg11.dtd">
<!-- Creator: CorelDRAW X7 -->
<svg xmlns="http://www.w3.org/2000/svg" xml:space="preserve" width="285.403mm" height="53.1659mm" version="1.1" style="shape-rendering:geometricPrecision; text-rendering:geometricPrecision; image-rendering:optimizeQuality; fill-rule:evenodd; clip-rule:evenodd"
viewBox="0 0 28977 5398"
 xmlns:xlink="http://www.w3.org/1999/xlink">
 <defs>
  <style type="text/css">
   <![CDATA[
    .str1 {stroke:#AE2422;stroke-width:7.73656}
    .str0 {stroke:#1C6BB2;stroke-width:7.73656}
    .fil0 {fill:#E32324;fill-rule:nonzero}
    .fil2 {fill:#AE2422;fill-rule:nonzero}
    .fil3 {fill:#618EC5;fill-rule:nonzero}
    .fil1 {fill:#3661A2;fill-rule:nonzero}
    .fil4 {fill:#1C6BB2;fill-rule:nonzero}
    .fil5 {fill:#264082;fill-rule:nonzero}
   ]]>
  </style>
    <clipPath id="id0" style="clip-rule:nonzero">
     <path d="M28179 973l105 -153 -105 153 0 0 0 0z"/>
    </clipPath>
    <clipPath id="id1" style="clip-rule:nonzero">
     <path d="M798 973l-105 -153 105 153 0 0 0 0z"/>
    </clipPath>
 </defs>
 <g id="Слой_x0020_1">
  <metadata id="CorelCorpID_0Corel-Layer"/>
  <g id="_801384064">
   <path class="fil0" d="M25651 642l-713 -62 -576 -580 1193 0 96 642zm-869 -76l-930 -81 431 -425 499 506z"/>
   <path class="fil1" d="M25651 642l-2 20 -689 -60 -44 -44 737 65 -2 19 -19 3 19 -3zm-848 -54l-970 -85 37 -36 890 77 43 44zm772 -588l100 664 -26 -2 2 -20 -19 3 -97 -645 40 0z"/>
   <polygon class="fil0" points="28875,0 28184,1000 26711,0 "/>
   <polygon class="fil1" points="28899,0 28189,1028 26676,0 26746,0 28179,973 28851,0 "/>
   <polygon class="fil0" points="28184,1000 25651,642 25555,0 26711,0 "/>
   <path class="fil2" d="M28184 1000l-3 20 -2547 -360 -99 -660 40 0 94 625 2518 355 -3 20 -11 17 11 -17zm-1438 -1000l1449 984 -14 36 3 -20 -11 17 -1497 -1017 70 0z"/>
   <path class="fil0" d="M28973 975l-146 4 146 -143 0 139zm-290 9l-499 16 691 -1000 98 0 0 699 -290 285z"/>
   <path class="fil2" d="M28973 994l-166 6 41 -41 125 -4 0 39zm-311 11l-517 16 706 -1021 48 0 -676 979 481 -16 -42 42z"/>
   <path class="fil0 str0" d="M28973 1470l-401 -239 255 -252 146 -4 0 495zm-489 -291l-300 -179 499 -16 -199 195z"/>
   <path class="fil2" d="M28973 1493l-416 -247 30 -29 386 230 0 46zm-503 -300l-354 -211 588 -19 -42 42 -410 13 247 146 -29 29zm378 -234l125 -4 0 39 -166 6 41 -41z"/>
   <path class="fil0" d="M23701 2912l-1915 -53 -168 -171 2027 -2000 56 2224zm-2078 -58l-169 -4 82 -82 87 86z"/>
   <path class="fil1" d="M23701 2912l0 20 -1894 -53 -41 -41 1936 54 -1 20 -20 0 20 0zm-2058 -37l-209 -6 39 -39 129 4 41 41zm2022 -2206l57 2263 -21 0 0 -20 -20 0 -55 -2205 39 -38z"/>
   <path class="fil0" d="M28184 1000l-2181 652 -410 -413 58 -597 2533 358zm-2297 687l-348 104 40 -416 308 312z"/>
   <path class="fil2" d="M28184 1000l6 19 -2171 649 -32 -32 2191 -655 6 19 -3 20 3 -20zm-2281 703l-387 116 45 -462 37 37 -37 370 310 -93 32 32zm-328 -482l58 -601 2554 360 3 39 -6 -19 -3 20 -2512 -355 -58 592 -36 -36z"/>
   <path class="fil0" d="M25651 642l-58 597 -655 -659 713 62zm-72 733l-40 416 -1764 -1230 77 -76 930 81 797 809z"/>
   <path class="fil2" d="M25651 642l20 2 -60 613 -36 -36 56 -581 20 2 -2 20 2 -20zm-53 752l-43 433 -1794 -1252 28 -29 1733 1210 39 -399 37 37zm-1728 -927l890 77 43 44 -970 -85 37 -36zm1046 91l757 66 -2 20 -20 -2 -2 20 -689 -60 -44 -44z"/>
   <polygon class="fil0" points="25539,1791 23701,2912 23645,688 23775,561 "/>
   <path class="fil2" d="M25539 1791l10 17 -1867 1139 -56 -2240 39 -38 55 2208 1808 -1103 11 17 -12 17 12 -17zm-1750 -1245l1786 1246 -26 16 -10 -17 -12 17 -1766 -1233 28 -29z"/>
   <path class="fil0" d="M28973 1584l-808 49 407 -402 401 239 0 114zm-960 58l-1906 115 -104 -105 2181 -652 300 179 -471 463zm-2049 124l-425 25 348 -104 77 79z"/>
   <path class="fil2" d="M28973 1604l-830 50 43 -42 787 -48 0 40zm-982 59l-1865 113 -38 -38 1946 -117 -43 42zm-2008 121l-443 27 -7 -39 338 -101 32 32 -194 58 237 -14 37 37zm4 -148l2200 -657 312 185 -29 29 -289 -171 -2162 646 -32 -32zm2600 -419l386 230 0 46 -416 -247 30 -29z"/>
   <path class="fil0" d="M25368 3798l171 -2007 425 -25 946 959 -415 410 -1127 663zm739 -2041l1906 -115 -1023 1004 0 0 -883 -889zm2058 -124l808 -49 0 92 -1855 1092 -52 -52 1099 -1083zm-1140 1190l-167 98 134 -131 33 33z"/>
   <path class="fil2" d="M25368 3798l-20 -2 172 -2024 426 -25 37 37 -426 26 -169 1990 -20 -2 -10 -17 10 17zm720 -2060l1946 -117 -43 42 -1865 113 -38 -38zm2098 -126l787 -48 0 40 -830 50 43 -42zm787 87l-1841 1084 -29 -29 1870 -1101 0 46zm-1933 1138l-241 142 118 -116 94 -55 29 29zm-603 355l-1092 643 3 -39 20 2 -10 -17 1195 -703 -116 114z"/>
   <path class="fil0" d="M28973 4410l-284 -48 -1571 -1594 1855 -1092 0 2734zm-434 -73l-2666 -453 985 -963 167 -98 1514 1514zm-2784 -473l-387 -66 1127 -663 -740 729z"/>
   <path class="fil2" d="M28973 4430l-260 -44 -47 -48 307 52 0 40zm-410 -69l-2707 -460 35 -34 2624 445 48 49zm-2825 -480l-427 -73 1242 -731 -116 115 -1012 595 348 60 -35 34zm1179 -1018l94 -55 29 29 -241 142 118 -116zm186 -109l1870 -1101 0 46 -1841 1084 -29 -29z"/>
   <polygon class="fil0" points="25368,3798 23701,2912 25539,1791 "/>
   <polygon class="fil2" points="25368,3798 25358,3815 23661,2913 25562,1754 25385,3830 25358,3815 25368,3798 25348,3796 25516,1829 23741,2911 25377,3780 25368,3798 25348,3796 "/>
   <path class="fil0" d="M24633 4230l-941 561 -605 -613 1546 52zm-1024 611l-930 555 -1430 0 -1253 -1109 208 -205 2738 91 667 668z"/>
   <path class="fil1" d="M24633 4230l10 17 -937 559 -28 -29 945 -564 10 17 -1 20 1 -20zm-1009 625l-907 541 -77 0 955 -570 29 29zm-2405 541l-1237 -1095 28 -28 1269 1123 -60 0zm-995 -1334l2697 91 41 41 -2777 -93 39 -39zm2843 96l1634 54 -58 35 -10 -17 -1 20 -1524 -51 -41 -41z"/>
   <polygon class="fil0" points="25368,3798 24633,4230 23701,2912 "/>
   <polygon class="fil2" points="25368,3798 25378,3815 24627,4256 23685,2923 23711,2894 25408,3797 25378,3815 25368,3798 25358,3815 23766,2969 24639,4204 25358,3781 25368,3798 25358,3815 "/>
   <path class="fil0" d="M24633 4230l-1546 -52 -832 -844 1446 -422 932 1318zm-1691 -57l-2738 -91 215 -212 1718 -501 805 804z"/>
   <path class="fil2" d="M24633 4230l-1 20 -1524 -51 -41 -41 1567 52 -1 20 -16 11 16 -11zm-1671 -36l-2777 -93 39 -39 2697 91 41 41zm-2513 -353l1672 -488 32 32 -1764 514 60 -58zm1790 -523l1470 -429 963 1362 -40 -1 1 -20 -16 11 -924 -1306 -1422 415 -32 -32z"/>
   <path class="fil0" d="M23701 2912l-1446 422 -469 -475 1915 53zm-1564 457l-1718 501 1035 -1020 169 4 514 515z"/>
   <path class="fil0" d="M23701 2912l-1446 422 -469 -475 1915 53zm-1564 457l-1718 501 1035 -1020 169 4 514 515z"/>
   <path class="fil2 str1" d="M23701 2912l6 19 -1436 419 -32 -32 1457 -425 5 19 0 20 0 -20zm-1548 473l-1764 514 60 -58 1672 -488 32 32zm-680 -555l129 4 41 41 -209 -6 39 -39zm293 8l1936 54 5 39 -6 -19 0 20 -1894 -53 -41 -41z"/>
   <path class="fil2 str1" d="M23701 2912l6 19 -1436 419 -32 -32 1457 -425 5 19 0 20 0 -20zm-1548 473l-1764 514 60 -58 1672 -488 32 32zm-680 -555l129 4 41 41 -209 -6 39 -39zm293 8l1936 54 5 39 -6 -19 0 20 -1894 -53 -41 -41z"/>
   <polygon class="fil0" points="27965,5398 28973,5006 28973,5398 "/>
   <polygon class="fil1" points="27911,5398 28973,4985 28973,5028 28020,5398 "/>
   <path class="fil0" d="M28973 5006l-1008 392 -1616 0 -759 -1237 283 -277 2666 453 434 433 0 236zm-3434 -929l-171 -279 387 66 -216 213zm3150 285l284 48 0 240 -284 -288z"/>
   <path class="fil2" d="M28973 5028l-953 370 -109 0 1062 -413 0 43zm-2648 370l-749 -1223 29 -28 767 1251 -47 0zm-801 -1307l-196 -320 445 76 -35 34 -330 -56 145 238 -29 28zm367 -224l2624 445 48 49 -2707 -460 35 -34zm2775 471l307 52 0 40 -260 -44 -47 -48z"/>
   <path class="fil0" d="M22679 5396l930 -555 140 140 -489 415 -581 0zm1013 -605l941 -561 -813 691 -128 -130z"/>
   <path class="fil2" d="M22640 5396l955 -570 29 29 -907 541 -77 0zm1038 -619l945 -564 23 32 -813 690 -27 -29 632 -537 -732 437 -28 -29zm85 218l-472 401 -62 0 506 -430 28 29z"/>
   <path class="fil0" d="M26046 5398l-933 -771 477 -466 758 1237 -302 0zm-1005 -830l-408 -338 735 -432 171 279 -498 491z"/>
   <path class="fil2" d="M26015 5398l-916 -757 29 -28 949 785 -53 0 -9 0zm-988 -816l-429 -355 776 -456 179 292 -29 28 -163 -266 -694 408 389 321 -29 28zm578 -435l767 1251 -47 0 -749 -1223 29 -28z"/>
   <polygon class="fil0" points="19996,4287 21249,5396 18872,5396 "/>
   <polygon class="fil0" points="19996,4287 21249,5396 18872,5396 "/>
   <polygon class="fil2" points="20010,4273 21279,5396 21219,5396 19982,4301 "/>
   <polygon class="fil2" points="20010,4273 21279,5396 21219,5396 19982,4301 "/>
   <path class="fil0" d="M23260 5396l489 -415 415 415 -904 0zm560 -475l813 -691 408 338 -796 785 -425 -432zm1293 -294l933 771 -22 0 -1697 -2 786 -769z"/>
   <path class="fil2" d="M23229 5396l506 -430 28 29 -472 401 -62 0zm577 -490l827 -702 423 350 -29 28 -394 -326 -800 679 -27 -29zm1322 -293l949 785 -53 0 -9 0 -916 -757 29 -28z"/>
   <path class="fil1" d="M28017 911l0 -48 0 0 0 48 0 0 0 0zm0 45l0 0 0 0z"/>
   <polygon class="fil1" points="28017,1071 28017,1029 28017,1029 28017,1029 28017,1071 "/>
   <path class="fil3" d="M28017 4228l0 0 0 -414 0 0 0 414zm0 -548l0 -1418 0 0 0 1418 0 0 0 0z"/>
   <polygon class="fil1" points="28017,2262 28017,2216 28017,2216 28017,2262 "/>
   <path class="fil1" d="M28017 5396l0 0 0 -39 0 0 0 39zm0 -1128l0 -40 0 0 0 40 0 0 0 0z"/>
   <g style="clip-path:url(#id0)">
    <image transform="matrix(-4.53047 -0 -0 5.80787 28311.4 794.595)" x="0" y="0" width="35.8196" height="35.8196" xlink:href="фон_Images\фон_ImgID1.png"/>
   </g>
   <path class="fil4" d="M3326 642l713 -62 576 -580 -1193 0 -96 642zm869 -76l930 -81 -431 -425 -499 506z"/>
   <path class="fil1" d="M3326 642l1 20 690 -60 43 -44 -736 65 2 19 19 3 -19 -3zm848 -54l970 -85 -38 -36 -889 77 -43 44zm-773 -588l-99 664 25 -2 -1 -20 19 3 97 -645 -41 0z"/>
   <polygon class="fil4" points="102,0 793,1000 2266,0 "/>
   <polygon class="fil1" points="78,0 788,1028 2301,0 2230,0 798,973 126,0 "/>
   <polygon class="fil4" points="793,1000 3326,642 3422,0 2266,0 "/>
   <path class="fil5" d="M793 1000l3 20 2547 -360 99 -660 -41 0 -93 625 -2518 355 3 20 11 17 -11 -17zm1437 -1000l-1448 984 14 36 -3 -20 11 17 1497 -1017 -71 0z"/>
   <path class="fil4" d="M4 975l145 4 -145 -143 0 139zm290 9l499 16 -691 -1000 -98 0 0 699 290 285z"/>
   <path class="fil5" d="M4 994l166 6 -41 -41 -125 -4 0 39zm311 11l517 16 -706 -1021 -48 0 676 979 -481 -16 42 42z"/>
   <path class="fil4 str0" d="M4 1470l401 -239 -256 -252 -145 -4 0 495zm489 -291l300 -179 -499 -16 199 195z"/>
   <path class="fil4" d="M5276 2912l1914 -53 169 -171 -2028 -2000 -55 2224zm2078 -58l169 -4 -83 -82 -86 86z"/>
   <path class="fil1" d="M5276 2912l0 20 1894 -53 41 -41 -1936 54 1 20 19 0 -19 0zm2058 -37l209 -6 -39 -39 -129 4 -41 41zm-2022 -2206l-57 2263 21 0 0 -20 19 0 56 -2205 -39 -38z"/>
   <path class="fil4" d="M793 1000l2181 652 410 -413 -58 -597 -2533 358zm2297 687l348 104 -41 -416 -307 312z"/>
   <path class="fil5" d="M793 1000l-6 19 2171 649 32 -32 -2191 -655 -6 19 3 20 -3 -20zm2281 703l387 116 -45 -462 -37 37 37 370 -310 -93 -32 32zm328 -482l-59 -601 -2553 360 -3 39 6 -19 3 20 2512 -355 58 592 36 -36z"/>
   <path class="fil4" d="M3326 642l58 597 655 -659 -713 62zm71 733l41 416 1764 -1230 -77 -76 -930 81 -798 809z"/>
   <path class="fil5" d="M3326 642l-20 2 60 613 36 -36 -57 -581 -19 2 1 20 -1 -20zm53 752l43 433 1794 -1252 -29 -29 -1732 1210 -39 -399 -37 37zm1727 -927l-889 77 -43 44 970 -85 -38 -36zm-1046 91l-756 66 2 20 20 -2 1 20 690 -60 43 -44z"/>
   <polygon class="fil4" points="3438,1791 5276,2912 5331,688 5202,561 "/>
   <path class="fil5" d="M3438 1791l-10 17 1867 1139 56 -2240 -39 -38 -55 2208 -1808 -1103 -11 17 12 17 -12 -17zm1749 -1245l-1785 1246 26 16 10 -17 12 17 1766 -1233 -29 -29z"/>
   <path class="fil4" d="M4 1584l808 49 -407 -402 -401 239 0 114zm960 58l1906 115 104 -105 -2181 -652 -300 179 471 463zm2049 124l425 25 -348 -104 -77 79z"/>
   <path class="fil5" d="M4 1604l830 50 -43 -42 -787 -48 0 40zm982 59l1865 113 38 -38 -1946 -117 43 42zm2008 121l443 27 7 -39 -338 -101 -32 32 194 58 -237 -14 -37 37zm-4 -148l-2200 -657 -312 185 29 29 289 -171 2162 646 32 -32zm-2600 -419l-386 230 0 46 415 -247 -29 -29z"/>
   <path class="fil4" d="M3609 3798l-171 -2007 -425 -25 -946 959 415 410 1127 663zm-739 -2041l-1906 -115 1023 1004 0 0 883 -889zm-2058 -124l-808 -49 0 92 1855 1092 52 -52 -1099 -1083zm1140 1190l167 98 -134 -131 -33 33z"/>
   <path class="fil5" d="M3609 3798l20 -2 -172 -2024 -426 -25 -37 37 426 26 169 1990 20 -2 10 -17 -10 17zm-720 -2060l-1946 -117 43 42 1865 113 38 -38zm-2098 -126l-787 -48 0 40 830 50 -43 -42zm-787 87l1841 1084 29 -29 -1870 -1101 0 46zm1933 1138l241 142 -118 -116 -94 -55 -29 29zm603 355l1092 643 -3 -39 -20 2 10 -17 -1195 -703 116 114z"/>
   <path class="fil4" d="M4 4410l283 -48 1572 -1594 -1855 -1092 0 2734zm434 -73l2665 -453 -984 -963 -167 -98 -1514 1514zm2784 -473l387 -66 -1127 -663 740 729z"/>
   <path class="fil5" d="M4 4430l260 -44 47 -48 -307 52 0 40zm409 -69l2708 -460 -35 -34 -2624 445 -49 49zm2826 -480l427 -73 -1242 -731 116 115 1012 595 -348 60 35 34zm-1179 -1018l-94 -55 -29 29 241 142 -118 -116zm-186 -109l-1870 -1101 0 46 1841 1084 29 -29z"/>
   <polygon class="fil4" points="3609,3798 5276,2912 3438,1791 "/>
   <polygon class="fil5" points="3609,3798 3618,3815 5316,2913 3415,1754 3592,3830 3618,3815 3609,3798 3629,3796 3461,1829 5236,2911 3600,3780 3609,3798 3629,3796 "/>
   <path class="fil4" d="M4344 4230l941 561 604 -613 -1545 52zm1024 611l930 555 1430 0 1253 -1109 -209 -205 -2737 91 -667 668z"/>
   <path class="fil1" d="M4344 4230l-10 17 937 559 28 -29 -945 -564 -10 17 1 20 -1 -20zm1009 625l906 541 78 0 -955 -570 -29 29zm2405 541l1237 -1095 -28 -28 -1269 1123 60 0zm995 -1334l-2697 91 -41 41 2777 -93 -39 -39zm-2843 96l-1634 54 58 35 10 -17 1 20 1524 -51 41 -41z"/>
   <polygon class="fil4" points="3609,3798 4344,4230 5276,2912 "/>
   <polygon class="fil5" points="3609,3798 3599,3815 4350,4256 5292,2923 5266,2894 3568,3797 3599,3815 3609,3798 3618,3815 5211,2969 4338,4204 3619,3781 3609,3798 3618,3815 "/>
   <path class="fil4" d="M4344 4230l1545 -52 833 -844 -1446 -422 -932 1318zm1691 -57l2737 -91 -214 -212 -1718 -501 -805 804z"/>
   <path class="fil5" d="M4344 4230l1 20 1524 -51 41 -41 -1567 52 1 20 16 11 -16 -11zm1671 -36l2777 -93 -39 -39 -2697 91 -41 41zm2513 -353l-1672 -488 -32 32 1764 514 -60 -58zm-1790 -523l-1470 -429 -963 1362 40 -1 -1 -20 16 11 924 -1306 1422 415 32 -32z"/>
   <path class="fil4" d="M5276 2912l1446 422 468 -475 -1914 53zm1564 457l1718 501 -1035 -1020 -169 4 -514 515z"/>
   <path class="fil5" d="M5276 2912l-6 19 1436 419 32 -32 -1457 -425 -5 19 0 20 0 -20zm1548 473l1764 514 -60 -58 -1672 -488 -32 32zm680 -555l-129 4 -41 41 209 -6 -39 -39zm-293 8l-1936 54 -5 39 6 -19 0 20 1894 -53 41 -41z"/>
   <polygon class="fil4" points="1011,5398 4,5006 4,5398 "/>
   <polygon class="fil1" points="1066,5398 4,4985 4,5028 957,5398 "/>
   <path class="fil4" d="M4 5006l1007 392 1617 0 759 -1237 -284 -277 -2665 453 -434 433 0 236zm3434 -929l171 -279 -387 66 216 213zm-3151 285l-283 48 0 240 283 -288z"/>
   <path class="fil5" d="M4 5028l953 370 109 0 -1062 -413 0 43zm2648 370l749 -1223 -29 -28 -767 1251 47 0zm800 -1307l197 -320 -445 76 35 34 330 -56 -146 238 29 28zm-366 -224l-2624 445 -49 49 2708 -460 -35 -34zm-2775 471l-307 52 0 40 260 -44 47 -48z"/>
   <path class="fil4" d="M6298 5396l-930 -555 -140 140 489 415 581 0zm-1013 -605l-941 -561 813 691 128 -130z"/>
   <path class="fil5" d="M6337 5396l-955 -570 -29 29 906 541 78 0zm-1038 -619l-945 -564 -23 32 812 690 28 -29 -632 -537 732 437 28 -29zm-85 218l472 401 62 0 -506 -430 -28 29z"/>
   <path class="fil4" d="M2931 5398l933 -771 -477 -466 -759 1237 303 0zm1004 -830l409 -338 -735 -432 -171 279 497 491z"/>
   <path class="fil5" d="M2962 5398l916 -757 -29 -28 -949 785 53 0 9 0zm988 -816l428 -355 -776 -456 -179 292 29 28 164 -266 693 408 -388 321 29 28zm-578 -435l-767 1251 47 0 749 -1223 -29 -28z"/>
   <polygon class="fil4" points="8981,4287 7728,5396 10105,5396 "/>
   <polygon class="fil5" points="8967,4273 7698,5396 7758,5396 8995,4301 "/>
   <path class="fil4" d="M5717 5396l-489 -415 -415 415 904 0zm-560 -475l-813 -691 -409 338 796 785 426 -432zm-1293 -294l-933 771 22 0 1696 -2 -785 -769z"/>
   <path class="fil5" d="M5748 5396l-506 -430 -28 29 472 401 62 0zm-577 -490l-827 -702 -423 350 29 28 394 -326 799 679 28 -29zm-1322 -293l-949 785 53 0 9 0 916 -757 -29 -28z"/>
   <path class="fil1" d="M960 911l0 -48 0 0 0 48 0 0 0 0zm0 45l0 0 0 0z"/>
   <polygon class="fil1" points="960,1071 960,1029 960,1029 960,1029 960,1071 "/>
   <path class="fil3" d="M960 4228l0 0 0 -414 0 0 0 414zm0 -548l0 -1418 0 0 0 1418 0 0 0 0z"/>
   <polygon class="fil1" points="960,2262 960,2216 960,2216 960,2262 "/>
   <path class="fil1" d="M960 5396l0 0 0 -39 0 0 0 39zm0 -1128l0 -40 0 0 0 40 0 0 0 0z"/>
   <g style="clip-path:url(#id1)">
    <image x="665" y="795" width="162" height="208" xlink:href="фон_Images\фон_ImgID2.png"/>
   </g>
  </g>
 </g>
</svg>
